<svg xmlns="http://www.w3.org/2000/svg" viewBox="0 0 1080 1920" width="1080" height="1920">
    <defs>
        <filter id="box-shadow-batik" x="-20%" y="-20%" width="140%" height="140%">
            <feGaussianBlur in="SourceAlpha" stdDeviation="20" result="blur"/>
            <feOffset in="blur" dx="0" dy="20" result="offsetBlur"/>
            <feComponentTransfer in="offsetBlur" result="shadowAlpha">
                <feFuncA type="linear" slope="0.1"/>
            </feComponentTransfer>
            <feMerge>
                <feMergeNode in="shadowAlpha"/>
                <feMergeNode in="SourceGraphic"/>
            </feMerge>
        </filter>

        <linearGradient id="primary-gradient" x1="0%" y1="0%" x2="100%" y2="100%">
            <stop offset="0%" stop-color="#a5b4fc" />
            <stop offset="50%" stop-color="#c4b5fd" />
            <stop offset="100%" stop-color="#f9a8d4" />
        </linearGradient>

        <pattern id="header-pattern" width="100" height="100" patternUnits="userSpaceOnUse">
            <path d="M11 18c3.866 0 7-3.134 7-7s-3.134-7-7-7-7 3.134-7 7 3.134 7 7 7zm48 25c3.866 0 7-3.134 7-7s-3.134-7-7-7-7 3.134-7 7 3.134 7 7 7zm-43-7c1.657 0 3-1.343 3-3s-1.343-3-3-3-3 1.343-3 3 1.343 3 3 3zm63 31c1.657 0 3-1.343 3-3s-1.343-3-3-3-3 1.343-3 3 1.343 3 3 3zM34 90c1.657 0 3-1.343 3-3s-1.343-3-3-3-3 1.343-3 3 1.343 3 3 3zm56-76c1.105 0 2-.895 2-2s-.895-2-2-2-2 .895-2 2 .895 2 2 2zM12 86c1.105 0 2-.895 2-2s-.895-2-2-2-2 .895-2 2 .895 2 2 2zM85 52c1.105 0 2-.895 2-2s-.895-2-2-2-2 .895-2 2 .895 2 2 2z" fill="#ffffff" fill-opacity="0.15" fill-rule="evenodd"/>
        </pattern>
    </defs>

    <rect width="1080" height="1920" fill="#ffffff" />

    <g id="header" opacity="0.95">
        <rect width="1080" height="730" fill="url(#primary-gradient)" />
        <rect width="1080" height="730" fill="url(#header-pattern)" />
    </g>

    <text x="540" y="320" font-family="sans-serif" font-size="115" font-weight="800" fill="#ffffff" text-anchor="middle" letter-spacing="-3">
        {{header}}
    </text>
    
    <g id="pill" transform="translate(540, 420)">
        <rect x="-175" y="-38" width="350" height="76" rx="38" fill="#ffffff" fill-opacity="0.3" />
        <text x="0" y="5" font-family="monospace" font-size="34" font-weight="700" fill="#ffffff" text-anchor="middle" dominant-baseline="middle">
            {{pill}}
        </text>
    </g>

    <path d="M 0 720 A 90 90 0 0 1 90 630 L 990 630 A 90 90 0 0 1 1080 720 L 1080 1920 L 0 1920 Z" fill="#ffffff" />

    <g id="message-box" transform="translate(65, 825)" filter="url(#box-shadow-batik)">
        <rect width="950" height="750" rx="60" fill="#a77fc0" fill-opacity="0.22" />
        
        <text x="475" y="375" font-family="sans-serif" font-size="64" font-weight="700" fill="#1e293b" text-anchor="middle" dominant-baseline="middle">
            {{message}}
        </text>
    </g>
</svg>
